<?xml version="1.0" encoding="UTF-8" standalone="no"?>
<!-- Created with Inkscape (http://www.inkscape.org/) -->

<svg
   xmlns:dc="http://purl.org/dc/elements/1.1/"
   xmlns:cc="http://creativecommons.org/ns#"
   xmlns:rdf="http://www.w3.org/1999/02/22-rdf-syntax-ns#"
   xmlns:svg="http://www.w3.org/2000/svg"
   xmlns="http://www.w3.org/2000/svg"
   xmlns:sodipodi="http://sodipodi.sourceforge.net/DTD/sodipodi-0.dtd"
   xmlns:inkscape="http://www.inkscape.org/namespaces/inkscape"
   width="65.343262mm"
   height="65.513588mm"
   viewBox="0 0 231.53124 232.13476"
   id="svg2"
   version="1.1"
   inkscape:version="0.91 r13725"
   sodipodi:docname="gear1.svg">
  <defs
     id="defs4" />
  <sodipodi:namedview
     id="base"
     pagecolor="#ffffff"
     bordercolor="#666666"
     borderopacity="1.0"
     inkscape:pageopacity="0.0"
     inkscape:pageshadow="2"
     inkscape:zoom="0.7"
     inkscape:cx="324.43304"
     inkscape:cy="248.45727"
     inkscape:document-units="px"
     inkscape:current-layer="layer1"
     showgrid="false"
     fit-margin-top="0"
     fit-margin-left="0"
     fit-margin-right="0"
     fit-margin-bottom="0"
     inkscape:window-width="1920"
     inkscape:window-height="1017"
     inkscape:window-x="-8"
     inkscape:window-y="-8"
     inkscape:window-maximized="1" />
  <metadata
     id="metadata7">
    <rdf:RDF>
      <cc:Work
         rdf:about="">
        <dc:format>image/svg+xml</dc:format>
        <dc:type
           rdf:resource="http://purl.org/dc/dcmitype/StillImage" />
        <dc:title></dc:title>
      </cc:Work>
    </rdf:RDF>
  </metadata>
  <g
     inkscape:label="Layer 1"
     inkscape:groupmode="layer"
     id="layer1"
     transform="translate(-187.70982,-611.54185)">
    <path
       style="fill:#000000;fill-opacity:1;fill-rule:nonzero;stroke:none;stroke-width:24.89999962;stroke-miterlimit:4;stroke-dasharray:none;stroke-opacity:1"
       d="m 315.52037,611.54185 -19.77735,22.86524 -22.94726,-19.68164 -10.1836,28.46679 -28.50781,-10.0625 0.78906,30.22266 -30.21875,0.91601 11.65235,27.89649 -27.84571,11.76953 20.94336,21.80273 -21.71484,21.03516 27.4043,12.76563 -12.64844,27.45703 30.16601,2.0039 -1.87695,30.17383 28.85352,-9.0293 9.15039,28.81446 23.64258,-18.8418 18.9414,23.56055 15.23828,-26.10938 26.17383,15.12891 4.7793,-29.85156 29.87109,4.65234 -6.32812,-29.5625 29.53515,-6.45313 -16.58007,-25.27929 25.20898,-16.6875 -24.5918,-17.58399 17.47852,-24.66601 -29.2832,-7.51172 7.38867,-29.31445 -30.01953,3.57226 -3.70118,-30.00391 -26.70117,14.17579 -14.29101,-26.64063 z m -12.04492,38.92578 a 77.14286,77.14286 0 0 1 77.14257,77.14258 77.14286,77.14286 0 0 1 -77.14257,77.14258 77.14286,77.14286 0 0 1 -77.14258,-77.14258 77.14286,77.14286 0 0 1 77.14258,-77.14258 z"
       id="path4138"
       inkscape:connector-curvature="0" />
  </g>
</svg>
